<svg width="34" height="27" viewBox="0 0 34 27" fill="none" xmlns="http://www.w3.org/2000/svg">
<path d="M1.66699 6.6665L14.817 15.4332C15.3648 15.7986 16.0085 15.9937 16.667 15.9937C17.3255 15.9937 17.9692 15.7986 18.517 15.4332L31.667 6.6665M5.00033 24.9998H28.3337C29.2177 24.9998 30.0656 24.6486 30.6907 24.0235C31.3158 23.3984 31.667 22.5506 31.667 21.6665V4.99984C31.667 4.11578 31.3158 3.26794 30.6907 2.64281C30.0656 2.01769 29.2177 1.6665 28.3337 1.6665H5.00033C4.11627 1.6665 3.26842 2.01769 2.6433 2.64281C2.01818 3.26794 1.66699 4.11578 1.66699 4.99984V21.6665C1.66699 22.5506 2.01818 23.3984 2.6433 24.0235C3.26842 24.6486 4.11627 24.9998 5.00033 24.9998Z" stroke="#FAFAFA" stroke-width="3.33333" stroke-linecap="round" stroke-linejoin="round"/>
</svg>
