<svg width="34" height="37" viewBox="0 0 34 37" fill="none" xmlns="http://www.w3.org/2000/svg">
<path d="M8.34111 24.9209C6.69946 24.9228 5.11486 24.3188 3.89089 23.2248C2.66691 22.1308 1.88963 20.6236 1.70796 18.9921C1.52628 17.3605 1.95299 15.7193 2.90633 14.3828C3.85967 13.0463 5.2726 12.1086 6.87444 11.7493C6.41097 9.58776 6.82515 7.33067 8.02585 5.47453C9.22655 3.61839 11.1154 2.31524 13.2769 1.85178C15.4385 1.38831 17.6956 1.80249 19.5517 3.00319C21.4078 4.20389 22.711 6.09276 23.1744 8.25428H23.3411C25.4077 8.2522 27.4013 9.01808 28.935 10.4032C30.4687 11.7884 31.4329 13.694 31.6406 15.7501C31.8483 17.8062 31.2846 19.8662 30.0589 21.5301C28.8332 23.1939 27.033 24.343 25.0078 24.7543M21.6744 19.9209L16.6744 14.9209M16.6744 14.9209L11.6744 19.9209M16.6744 14.9209V34.9209" stroke="#000000" stroke-width="3.33333" stroke-linecap="round" stroke-linejoin="round"/>
</svg>
